<svg xmlns="http://www.w3.org/2000/svg" viewBox="0 0 24 24"><path fill="#FFF100" d="M11.316 2.556a8.088 8.088 0 0 0-3.388 1.036C6.138 4.628 2.75 8.833 2.75 8.833c-2.072 2.909.188 3.271.188 3.271 0 .054.047.054.094.054a15.916 15.916 0 0 0-.987 1.193c-.563.728-.798 1.349-.845 1.818v.469c.141.831 1.034.988 1.034.988 3.67.675 2.777 3.114 5.977 4.776 1.128.572 2.166.885 3.106 1.036 2.448.313 4.379-.621 5.695-1.403 3.012-1.868 4.238-4.566 4.52-4.825.235-.259 1.316-2.283-.376-2.909.564-.831.94-1.506 1.081-1.608.141-.103.564-.88.564-1.56 0-.675-.282-1.296-1.41-1.452-2.307-.469-2.918-2.542-5.742-4.723-1.462-1.143-2.97-1.456-4.333-1.402z"/><path d="M12.364 23.005c-.379 0-.768-.023-1.166-.07-4.066-.615-5.328-2.26-6.341-3.58-.772-1.006-1.382-1.801-3.158-2.107-.534-.088-1.498-.52-1.688-1.571a.748.748 0 0 1 .001-.271c-.056-.688.113-1.516 1.407-3.021a1.822 1.822 0 0 1-.579-.758c-.346-.85-.034-1.923.927-3.188a.733.733 0 0 1 .129-.132c.434-.348.898-.892 1.436-1.522 1.613-1.891 3.822-4.479 7.901-4.777l.027-.001c3.655-.126 5.719 1.974 7.391 3.668 1.115 1.129 2.077 2.104 3.271 2.333C23.725 8.24 24 9.458 24 10.162c0 .941-.377 1.499-1.374 2.872.343.312.501.677.573.977.268 1.122-.453 2.324-.732 2.612-1.313 1.999-4.818 6.381-10.103 6.382zM1.516 15.492c.105.205.429.275.433.275 2.36.407 3.244 1.56 4.099 2.674.938 1.222 1.907 2.485 5.353 3.007 5.083.604 8.563-3.743 9.822-5.643.09-.137.132-.199.218-.273.06-.088.414-.774.295-1.193-.019-.066-.068-.241-.444-.371a.75.75 0 0 1-.363-1.148l.352-.485c1.006-1.385 1.219-1.694 1.219-2.172 0-.267 0-.569-.815-.675-1.697-.323-2.865-1.506-4.102-2.759-1.615-1.636-3.292-3.311-6.254-3.223-3.446.255-5.337 2.471-6.856 4.252-.56.656-1.047 1.227-1.563 1.657-.641.863-.773 1.415-.68 1.645.085.209.438.286.441.286a.747.747 0 0 1 .319.127c.156.079.283.21.353.377a.747.747 0 0 1-.146.811c-1.767 1.831-1.71 2.411-1.692 2.601.007.06.015.139.011.23zm1.795-3.407zm9.992 7.126c-.3 0-.597-.023-.886-.075a5.369 5.369 0 0 1-1.283-.121c-1.913-.418-4.605-1.568-6.963-4.647-.264.312-.48.576-.539.667a.75.75 0 1 1-1.263-.808c.21-.329 1.042-1.28 1.292-1.563a.75.75 0 0 1 1.184.077c2.205 3.266 4.807 4.418 6.601 4.81.577.121.93.089.934.088a.773.773 0 0 1 .23.01c2.178.44 5.525-1.48 6.627-2.261a.75.75 0 0 1 .867 1.225c-.163.113-3.707 2.598-6.801 2.598z"/></svg>